<?xml version="1.0" encoding="UTF-8" standalone="no"?>
<!-- Created with Inkscape (http://www.inkscape.org/) -->

<svg
   version="1.1"
   id="svg824"
   width="768"
   height="500"
   viewBox="0 0 767.99998 500"
   sodipodi:docname="hero-content.svg"
   inkscape:version="1.1.1 (3bf5ae0d25, 2021-09-20)"
   xmlns:inkscape="http://www.inkscape.org/namespaces/inkscape"
   xmlns:sodipodi="http://sodipodi.sourceforge.net/DTD/sodipodi-0.dtd"
   xmlns="http://www.w3.org/2000/svg"
   xmlns:svg="http://www.w3.org/2000/svg">
  <defs
     id="defs828" />
  <sodipodi:namedview
     id="namedview826"
     pagecolor="#ffffff"
     bordercolor="#999999"
     borderopacity="1"
     inkscape:pageshadow="0"
     inkscape:pageopacity="0"
     inkscape:pagecheckerboard="0"
     showgrid="true"
     inkscape:zoom="0.48355793"
     inkscape:cx="269.8746"
     inkscape:cy="383.61485"
     inkscape:window-width="1920"
     inkscape:window-height="1051"
     inkscape:window-x="-9"
     inkscape:window-y="-9"
     inkscape:window-maximized="1"
     inkscape:current-layer="g830"
     fit-margin-top="0"
     fit-margin-left="0"
     fit-margin-right="0"
     fit-margin-bottom="0">
    <inkscape:grid
       type="xygrid"
       id="grid914"
       originx="-390.53502"
       originy="-324.96573" />
  </sodipodi:namedview>
  <g
     inkscape:groupmode="layer"
     inkscape:label="Image"
     id="g830"
     transform="translate(-390.53505,-324.96573)">
    <g
       id="g8965"
       style="fill:#ffffff;fill-opacity:1;stroke:none"
       transform="matrix(0.68434109,0,0,0.66161022,123.27587,109.96508)">
      <g
         id="g8877"
         style="fill:#ffffff;fill-opacity:1;stroke:none">
        <path
           id="path4761"
           style="fill:#ffffff;fill-opacity:1;stroke:none;stroke-width:1px;stroke-linecap:butt;stroke-linejoin:miter;stroke-opacity:1"
           d="M 930.3418,325.0332 C 853.11569,326.80012 768.51225,363.48689 680,460 365.28979,803.15774 650,1080 650,1080 h 770 c 2.6993,7.1737 33.0827,-42.8236 25,-65 -3.0347,-8.3262 -17.1661,-52.26662 14.2695,-75 12.619,-9.12568 40.9846,-48.08242 40.7305,-70 -0.2898,-24.99832 5,-65 5,-65 18.2173,-47.15369 -0.6827,-51.33639 -5,-50 -31.4096,-2.99344 -54.9747,62.92313 -76.709,70.73047 C 1336.9981,856.72839 1366.51,891.68279 1355,920 c -12.2945,30.24735 -82.2057,48.69778 -65,150 -10,-30 -60,-20 -60,-20 203.2357,-168.05471 150,-420 90,-470 C 1276.875,544.0625 1127.6974,320.51775 930.3418,325.0332 Z M 1470,815 c -0.4684,1.51545 -1.0522,3.0933 -1.7363,4.72266 -0.6842,1.62936 -1.4686,3.31107 -2.336,5.02929 -0.8674,1.71822 -1.8177,3.47382 -2.8359,5.25586 -1.0182,1.78204 -2.1038,3.58935 -3.2402,5.41016 -1.1364,1.82081 -2.3248,3.65569 -3.5469,5.49023 -1.2221,1.83455 -2.4786,3.66896 -3.7539,5.49219 -2.5507,3.64646 -5.1756,7.24633 -7.7442,10.69727 -5.137,6.90187 -10.0493,13.21122 -13.6972,18.1289 -1.824,2.45885 -3.331,4.57016 -4.3926,6.23242 -0.5308,0.83114 -0.9508,1.55011 -1.2422,2.14454 -0.2914,0.59442 -0.4551,1.06381 -0.4746,1.39648 0,0 1.25,0 3.2031,-0.15625 0.9766,-0.0781 2.1289,-0.19531 3.3887,-0.37109 1.2598,-0.17578 2.627,-0.41016 4.0332,-0.72266 1.4062,-0.3125 2.8516,-0.70312 4.2676,-1.19141 0.708,-0.24414 1.4089,-0.51318 2.0937,-0.80859 0.6848,-0.29541 1.3535,-0.61719 1.9981,-0.96875 0.6445,-0.35156 1.2644,-0.73193 1.8515,-1.14453 0.5872,-0.4126 1.1416,-0.85742 1.6543,-1.33594 0.5127,-0.47851 0.9832,-0.9917 1.4043,-1.54101 0.4212,-0.54932 0.793,-1.13477 1.1055,-1.75977 0,0 1.2996,-0.41423 2.5742,-0.62109 0.6373,-0.10344 1.269,-0.15375 1.7285,-0.0762 0.2298,0.0388 0.4159,0.10953 0.5391,0.22266 0.1232,0.11313 0.1829,0.26774 0.1582,0.47461 -0.078,0.65302 -0.2321,1.28615 -0.4551,1.89844 -0.2229,0.61228 -0.515,1.2028 -0.8672,1.77344 -0.3521,0.57063 -0.7649,1.12037 -1.2304,1.64843 -0.4655,0.52807 -0.9839,1.03496 -1.5469,1.51953 -0.563,0.48458 -1.1699,0.9485 -1.8145,1.38868 -0.6446,0.44017 -1.3267,0.8571 -2.0371,1.25195 -0.7103,0.39485 -1.4487,0.76662 -2.209,1.11523 -0.7602,0.34862 -1.5416,0.67316 -2.3359,0.97461 -0.7942,0.30146 -1.6017,0.58061 -2.4141,0.83399 -0.8123,0.25338 -1.6306,0.48116 -2.4453,0.68554 -1.6293,0.40878 -3.2458,0.71849 -4.789,0.92578 -1.5433,0.2073 -3.0135,0.31207 -4.3438,0.31055 -0.6651,-7.6e-4 -1.2947,-0.0277 -1.8828,-0.082 -0.5881,-0.0543 -1.1337,-0.1353 -1.6289,-0.24414 -0.5272,0.49338 -1.0644,1.11402 -1.6113,1.8457 -0.547,0.73168 -1.1035,1.57484 -1.666,2.51563 -0.5625,0.94078 -1.1313,1.97892 -1.7051,3.09961 -0.5738,1.12069 -1.1536,2.3243 -1.7344,3.5957 -1.1616,2.5428 -2.332,5.35767 -3.4961,8.32813 -1.1641,2.97045 -2.3206,6.09522 -3.4531,9.25976 -2.2651,6.32908 -4.4328,12.81364 -6.3672,18.51758 -0.9672,2.85197 -1.8776,5.5082 -2.7109,7.85351 -0.8334,2.34532 -1.5904,4.37929 -2.2559,5.98438 0,0 0.3125,0.0781 0.8789,0.18555 0.5664,0.10742 1.3867,0.24414 2.4023,0.36133 1.0157,0.11718 2.2266,0.21484 3.5743,0.24414 1.3476,0.0293 2.832,-0.01 4.3945,-0.16602 0.7812,-0.0781 1.5815,-0.1853 2.3945,-0.32812 0.813,-0.14283 1.6387,-0.32129 2.4688,-0.54102 0.8301,-0.21973 1.6655,-0.48023 2.498,-0.78906 0.8325,-0.30884 1.6621,-0.66602 2.4825,-1.07618 0.8203,-0.41015 1.6303,-0.87475 2.4238,-1.39843 0.7934,-0.52368 1.5703,-1.10645 2.3222,-1.75586 0.752,-0.64942 1.48,-1.36499 2.1758,-2.15235 0.6958,-0.78735 1.3594,-1.64648 1.9844,-2.58398 0,0 1.482,-0.34627 2.8477,-0.51953 0.6828,-0.0866 1.3363,-0.12943 1.7617,-0.0644 0.2127,0.0325 0.3679,0.0908 0.4414,0.18554 0.073,0.0948 0.065,0.22518 -0.051,0.39844 -0.5891,0.88214 -1.2237,1.71969 -1.8965,2.51367 -0.6728,0.79398 -1.3831,1.54458 -2.1269,2.25391 -0.7439,0.70933 -1.52,1.37767 -2.3223,2.00586 -0.8023,0.62818 -1.6323,1.21507 -2.4805,1.76562 -0.8482,0.55055 -1.7162,1.0646 -2.5976,1.54102 -0.8815,0.47642 -1.7757,0.91646 -2.6778,1.32226 -0.902,0.40581 -1.8106,0.77655 -2.7207,1.11524 -0.91,0.33869 -1.8211,0.64483 -2.7265,0.91992 -0.9055,0.27509 -1.8052,0.51939 -2.6934,0.73438 -0.8882,0.21498 -1.7647,0.40019 -2.623,0.55859 -1.7167,0.3168 -3.3613,0.52523 -4.8828,0.63672 -1.5216,0.11148 -2.9211,0.12631 -4.1465,0.0605 -0.6128,-0.0329 -1.1814,-0.0863 -1.7012,-0.1582 -0.5198,-0.0719 -0.9901,-0.16205 -1.4043,-0.26953 0,0 -3.25,7.5 -7.125,16.25 -1.9375,4.375 -4.0312,9.0625 -5.9531,13.28125 C 1383,988.75 1381.25,992.5 1380,995 c -3.125,8.125 -5.7031,15.0781 -7.8418,21.0449 -2.1387,5.9668 -3.8379,10.9473 -5.2051,15.127 -1.3672,4.1797 -2.4023,7.5586 -3.2129,10.3222 -0.8105,2.7637 -1.3964,4.9121 -1.8652,6.6309 -0.4688,1.7188 -0.8203,3.0078 -1.1621,4.0527 -0.1709,0.5225 -0.3401,0.9847 -0.5195,1.4082 -0.1795,0.4236 -0.3692,0.8086 -0.584,1.1797 -0.2149,0.3711 -0.4534,0.7268 -0.7305,1.0918 -0.2771,0.365 -0.5928,0.7393 -0.959,1.1446 -0.7324,0.8105 -1.6699,1.748 -2.9199,2.998 l -10,15 h -5 c 0,0 0.7207,-0.9521 1.7773,-2.4551 1.0567,-1.503 2.4496,-3.5573 3.795,-5.7597 0.6726,-1.1012 1.3327,-2.2399 1.9336,-3.3653 0.6008,-1.1254 1.1431,-2.236 1.5761,-3.2851 0.2165,-0.5246 0.406,-1.0349 0.5625,-1.5215 0.1566,-0.4867 0.2787,-0.9506 0.3633,-1.3867 0.085,-0.4362 0.1303,-0.8437 0.1309,-1.2168 6e-4,-0.3732 -0.043,-0.7122 -0.1387,-1.0098 -0.1669,-0.5211 -0.6546,-1.6607 -1.375,-3.2617 -0.7204,-1.601 -1.6743,-3.6627 -2.7695,-6.0254 -2.1905,-4.7255 -4.9515,-10.656 -7.5703,-16.5195 -1.3095,-2.9318 -2.5838,-5.8469 -3.7325,-8.586 -1.1487,-2.739 -2.171,-5.3031 -2.9804,-7.5312 -0.4048,-1.1141 -0.7566,-2.1436 -1.043,-3.0703 -0.2864,-0.9267 -0.5085,-1.7497 -0.6543,-2.4493 -0.1458,-0.6995 -0.2163,-1.2763 -0.1992,-1.7089 0.01,-0.2164 0.04,-0.397 0.094,-0.5391 0.053,-0.1421 0.1293,-0.2456 0.2305,-0.3086 l 5,-5 c -0.091,0.091 -0.1498,0.2922 -0.1758,0.5957 -0.026,0.3035 -0.019,0.7086 0.02,1.2051 0.077,0.993 0.2828,2.3529 0.6171,4.0019 0.3343,1.6491 0.7982,3.5881 1.3868,5.7383 0.5885,2.1502 1.3023,4.5114 2.1425,7.0078 0.8403,2.4965 1.8072,5.1287 2.8965,7.8164 0.5447,1.3439 1.1201,2.7018 1.7266,4.0645 0.6064,1.3626 1.2422,2.7297 1.9101,4.0918 0.668,1.3621 1.3667,2.7184 2.0957,4.0605 0.7291,1.3422 1.4895,2.6699 2.2793,3.9727 0.7899,1.3028 1.6106,2.5801 2.461,3.8242 0.8503,1.2441 1.7301,2.455 2.6406,3.6211 0,0 1.25,-3.125 3.2031,-8.125 1.9531,-5 4.6094,-11.875 7.4219,-19.375 1.4062,-3.75 2.8516,-7.6562 4.2676,-11.5625 1.416,-3.9063 2.8027,-7.8125 4.0918,-11.5625 1.289,-3.75 2.4804,-7.34375 3.5058,-10.625 1.0254,-3.28125 1.8848,-6.25 2.5098,-8.75 0.086,0.053 -0.6939,-0.87316 -1.9414,-2.75781 -0.6237,-0.94233 -1.3646,-2.12437 -2.1719,-3.54297 -0.8073,-1.41861 -1.6811,-3.07343 -2.5722,-4.96289 -0.4456,-0.94473 -0.896,-1.94834 -1.3438,-3.00977 -0.4478,-1.06143 -0.8945,-2.18193 -1.332,-3.35937 -0.4376,-1.17745 -0.8664,-2.41229 -1.2813,-3.70508 -0.4148,-1.29279 -0.8156,-2.64333 -1.1953,-4.05078 -0.3797,-1.40745 -0.7383,-2.87114 -1.0703,-4.39258 -0.332,-1.52144 -0.6363,-3.09963 -0.9082,-4.73437 -0.2719,-1.63475 -0.5117,-3.32685 -0.7109,-5.07422 -0.1993,-1.74738 -0.3585,-3.55083 -0.4727,-5.41016 0,0 0.2904,-0.45843 0.7324,-1.10938 0.4421,-0.65094 1.0351,-1.49486 1.6387,-2.26562 0.3018,-0.38538 0.6068,-0.75262 0.8965,-1.06836 0.2896,-0.31574 0.5642,-0.58005 0.8066,-0.75976 0.2424,-0.17972 0.4532,-0.27466 0.6133,-0.25196 0.08,0.0113 0.1463,0.0525 0.1992,0.12696 0.053,0.0744 0.092,0.18236 0.1133,0.32812 0.305,2.08109 0.5327,4.1098 0.7285,6.09766 0.1959,1.98785 0.3592,3.93573 0.5332,5.84961 0.174,1.91387 0.3602,3.79515 0.5996,5.65429 0.2395,1.85914 0.5336,3.69587 0.9258,5.51953 0.1961,0.91184 0.4154,1.81999 0.666,2.72657 0.2507,0.90657 0.5316,1.81112 0.8477,2.71484 0.3161,0.90372 0.668,1.80571 1.0605,2.70898 0.3925,0.90327 0.8269,1.80767 1.3067,2.7129 0.4798,0.90522 1.0059,1.8111 1.584,2.7207 0.578,0.90959 1.2073,1.82191 1.8945,2.73828 0.6871,0.91637 1.4311,1.83813 2.2383,2.76367 0.8071,0.92555 1.6771,1.85584 2.6152,2.79297 0,0 0.9375,-2.5 2.4219,-6.5625 1.4843,-4.0625 3.5156,-9.6875 5.7031,-15.9375 2.1875,-6.25 4.5312,-13.125 6.6406,-19.6875 1.0547,-3.28125 2.0508,-6.48438 2.9395,-9.49219 0.888,-3.00781 1.6692,-5.82031 2.2942,-8.32031 0,0 -0.2528,-0.37543 -0.6719,-1.07227 -0.419,-0.69684 -1.0051,-1.71549 -1.6738,-3.0039 -0.6687,-1.28841 -1.4189,-2.84639 -2.168,-4.6211 -0.3745,-0.88735 -0.7485,-1.82917 -1.1113,-2.81835 -0.3628,-0.98919 -0.7149,-2.02566 -1.0449,-3.10352 -0.33,-1.07786 -0.6381,-2.19623 -0.9141,-3.34961 -0.276,-1.15338 -0.5199,-2.3409 -0.7207,-3.55664 -0.2008,-1.21574 -0.3585,-2.45967 -0.4629,-3.72461 -0.1044,-1.26494 -0.1557,-2.55058 -0.1426,-3.85156 0.013,-1.30098 0.09,-2.61755 0.2422,-3.94141 0.1519,-1.32386 0.3778,-2.65665 0.6895,-3.99023 0.3117,-1.33358 0.7104,-2.66791 1.2031,-3.99805 0.4928,-1.33014 1.0804,-2.6552 1.7754,-3.96875 0,0 0.3043,-0.12406 0.7637,-0.27344 0.4594,-0.14938 1.0745,-0.32447 1.6953,-0.42578 0.3104,-0.0507 0.6212,-0.0824 0.916,-0.084 0.2948,-0.002 0.5724,0.0275 0.8145,0.0996 0.242,0.0721 0.4496,0.18691 0.6015,0.35742 0.152,0.17051 0.2488,0.39586 0.2735,0.68945 0.049,0.58307 0.06,1.18055 0.043,1.79102 -0.017,0.61047 -0.062,1.23457 -0.1308,1.87304 -0.1368,1.27696 -0.3607,2.61129 -0.6114,4.00391 -0.2506,1.39262 -0.5276,2.84427 -0.7714,4.35742 -0.2439,1.51316 -0.4541,3.08607 -0.5704,4.72461 -0.058,0.81927 -0.094,1.65628 -0.098,2.50781 0,0.85153 0.024,1.71912 0.09,2.60352 0.066,0.8844 0.1716,1.78525 0.3223,2.70312 0.1507,0.91788 0.3472,1.85274 0.5976,2.80469 0.2505,0.95195 0.5546,1.91961 0.92,2.90625 0.3653,0.98664 0.7917,1.99174 1.2871,3.01367 0.4953,1.02194 1.0588,2.0613 1.6992,3.11914 0.6404,1.05785 1.3577,2.13417 2.1582,3.22852 0,0 0.097,-0.40809 0.3223,-1.1875 0.2253,-0.77941 0.5787,-1.93041 1.0937,-3.41797 0.515,-1.48756 1.1917,-3.31111 2.0606,-5.43555 0.8688,-2.12443 1.9297,-4.55018 3.2168,-7.24023 0.6435,-1.34502 1.3434,-2.75545 2.1035,-4.22852 0.7601,-1.47306 1.5801,-3.00741 2.4648,-4.59961 0.8847,-1.59219 1.8343,-3.24289 2.8516,-4.94531 1.0173,-1.70242 2.1037,-3.45798 3.2617,-5.26172 1.158,-1.80373 2.3886,-3.65464 3.6953,-5.55078 1.3067,-1.89614 2.6889,-3.83677 4.1524,-5.8164 1.4634,-1.97964 3.0065,-3.99851 4.6347,-6.05274 1.6282,-2.05422 3.3416,-4.14376 5.1426,-6.26367 0,0 -0.2669,-0.89511 -0.6016,-2.4043 -0.1673,-0.75459 -0.3516,-1.66275 -0.5273,-2.68945 -0.1757,-1.0267 -0.3427,-2.17172 -0.4766,-3.40039 -0.1338,-1.22867 -0.2355,-2.53987 -0.2773,-3.90039 -0.042,-1.36052 -0.024,-2.77112 0.076,-4.19336 0.05,-0.71112 0.1216,-1.42527 0.2168,-2.13867 0.095,-0.71341 0.2129,-1.4259 0.3593,-2.13282 0.1464,-0.70691 0.3215,-1.40794 0.5254,-2.0996 0.2039,-0.69167 0.4374,-1.37337 0.7051,-2.04102 0.2677,-0.66765 0.5019,-1.17308 0.707,-1.53516 0.2052,-0.36207 0.3819,-0.58019 0.5332,-0.67187 0.076,-0.0458 0.1452,-0.0601 0.209,-0.0449 0.064,0.0152 0.1208,0.0591 0.1738,0.13086 0.1062,0.14353 0.192,0.39667 0.2618,0.74023 0.1394,0.68713 0.2156,1.73748 0.2617,3.01367 0.046,1.2762 0.062,2.7775 0.084,4.36133 0.022,1.58383 0.051,3.25131 0.1191,4.86133 0.069,1.61002 0.1771,3.16279 0.3613,4.51758 0.092,0.67739 0.2038,1.30442 0.3379,1.86523 0.1342,0.56081 0.2917,1.05579 0.4766,1.46484 0.1849,0.40906 0.3963,0.73297 0.6406,0.95508 0.1222,0.11106 0.2539,0.19618 0.3926,0.25391 0.1387,0.0577 0.2852,0.0879 0.4414,0.0879 0,0 4.0524,-6.0076 8.5781,-12.76172 C 1463.1039,825.48416 1468.103,817.98353 1470,815 Z" />
        <path
           id="path4763"
           style="fill:#ffffff;fill-opacity:1;stroke:none;stroke-width:1px;stroke-linecap:butt;stroke-linejoin:miter;stroke-opacity:1"
           d="m 650,1080 c -2.02799,-0.6994 -11.80238,0.017 -22.88672,0 z" />
        <path
           style="fill:#ffffff;fill-opacity:1;stroke:none;stroke-width:1px;stroke-linecap:butt;stroke-linejoin:miter;stroke-opacity:1"
           d="m 1395,790 c 0.4873,-1.54423 4.5752,-1.85714 5.0259,-3.39441 C 1454.3868,601.19619 1241.1434,465.5902 1265,495 c 5.4303,1.45493 152.8111,112.03927 130,295 z"
           id="path2661"
           sodipodi:nodetypes="cscc" />
        <path
           style="fill:#ffffff;fill-opacity:1;stroke:none;stroke-width:1px;stroke-linecap:butt;stroke-linejoin:miter;stroke-opacity:1"
           d="M 510.69398,860 C 524.88649,932.36523 478.17921,591.28633 630,500 683.76148,467.67447 445.05344,525.31 510.69398,860 Z"
           id="path4235"
           sodipodi:nodetypes="sss" />
        <path
           id="path7361"
           style="fill:#ffffff;fill-opacity:1;stroke:none;stroke-width:0.690305px;stroke-linecap:butt;stroke-linejoin:miter;stroke-opacity:1"
           d="m 570,1068.8729 v 11.4028 H 463.63636 c -2.12672,4.3388 -26.06515,-25.9003 -19.69697,-39.3129 2.39098,-5.0358 13.52479,-31.6116 -11.24266,-45.36104 -9.94224,-5.51934 -32.29087,-29.08093 -32.09067,-42.33698 0.22833,-15.11934 -3.93939,-39.31292 -3.93939,-39.31292 -14.35303,-28.51921 0.53788,-31.04897 3.93939,-30.2407 50.17283,18.44446 97.17526,62.91043 114.24242,99.79432 9.68658,18.29402 64.76813,29.45312 51.21213,90.72212 0.91405,-2.105 2.28771,-3.8537 3.93939,-5.3547 z M 460.9665,965.87254 c 0.43097,0.44252 0.86943,0.95248 1.31262,1.52148 0.44318,0.569 0.89131,1.19688 1.34339,1.87469 0.45209,0.67781 0.90888,1.40577 1.36648,2.17473 0.9152,1.53792 1.83733,3.2404 2.7545,5.03697 0.91717,1.79657 1.82837,3.68647 2.72065,5.60044 1.78462,3.82791 3.49249,7.74986 5.01656,11.19968 0.76204,1.72492 1.47936,3.33144 2.1359,4.74992 0.65661,1.41849 1.25301,2.64865 1.77734,3.61945 0,0 -0.24622,0.047 -0.69248,0.1122 -0.44625,0.065 -1.09258,0.1477 -1.89275,0.2186 -0.80025,0.071 -1.75423,0.1299 -2.81605,0.1476 -1.06175,0.018 -2.2313,-0.01 -3.46236,-0.1004 -0.61549,-0.047 -1.24605,-0.1121 -1.8866,-0.1985 -0.64054,-0.086 -1.29105,-0.1943 -1.94507,-0.3272 -0.65402,-0.1329 -1.31225,-0.2904 -1.96816,-0.4772 -0.65591,-0.1868 -1.30947,-0.4028 -1.95585,-0.6509 -0.6463,-0.248 -1.2845,-0.52906 -1.90968,-0.84579 -0.62511,-0.31673 -1.23726,-0.66919 -1.82966,-1.06197 -0.59249,-0.39277 -1.16606,-0.82556 -1.71425,-1.30176 -0.54822,-0.47622 -1.07103,-0.99583 -1.56345,-1.56284 0,0 -1.16761,-0.20943 -2.24362,-0.31422 -0.53796,-0.0524 -1.05285,-0.0784 -1.38802,-0.0389 -0.16757,0.0197 -0.28986,0.055 -0.34777,0.11222 -0.0578,0.0574 -0.0511,0.13619 0.04,0.24098 0.46414,0.53353 0.96411,1.04009 1.49419,1.52031 0.53009,0.4802 1.08977,0.93418 1.67579,1.36319 0.5861,0.42901 1.19754,0.83323 1.82966,1.21317 0.63212,0.37991 1.28603,0.73481 1.95431,1.06781 0.66828,0.333 1.3522,0.6439 2.04664,0.9321 0.69452,0.2881 1.39898,0.5542 2.10973,0.7997 0.71066,0.2454 1.42654,0.4696 2.14359,0.6745 0.71697,0.2048 1.43485,0.39 2.1482,0.5564 0.71342,0.1663 1.42224,0.3141 2.12204,0.4441 0.69979,0.13 1.3904,0.2421 2.06663,0.3379 1.35256,0.1916 2.64832,0.3176 3.84708,0.3851 1.19883,0.067 2.30145,0.076 3.26692,0.036 0.48281,-0.02 0.93078,-0.052 1.34031,-0.096 0.40954,-0.043 1.8104,2.2289 2.13674,2.1639 0,0 1.53029,2.2093 4.58332,7.5014 1.52651,2.6461 3.17611,5.4811 4.69034,8.0327 1.5142,2.5515 2.89298,4.8196 3.87783,6.3317 2.46212,4.9141 4.49335,9.1194 6.17838,12.7281 1.68504,3.6089 3.02379,6.6212 4.10098,9.1491 1.07718,2.528 1.89271,4.5715 2.53136,6.243 0.63858,1.6716 1.10022,2.9709 1.46958,4.0105 0.36936,1.0396 0.6463,1.8192 0.9156,2.4511 0.13465,0.3161 0.26798,0.5956 0.40933,0.8517 0.14142,0.2562 0.29087,0.489 0.4601,0.7135 0.16933,0.2245 0.3572,0.4396 0.57552,0.6603 0.21833,0.2208 0.46705,0.4472 0.75557,0.6924 0.57704,0.4901 1.3157,1.0571 2.30054,1.8132 l 7.87879,9.0722 h 3.9394 c 0,0 -0.56786,-0.5758 -1.40033,-1.4849 -0.83255,-0.9091 -1.92993,-2.1515 -2.98995,-3.4836 -0.52992,-0.666 -1.04999,-1.3547 -1.52343,-2.0353 -0.47336,-0.6807 -0.90068,-1.3524 -1.24183,-1.987 -0.17058,-0.3172 -0.31988,-0.6259 -0.44318,-0.9201 -0.12339,-0.2944 -0.21957,-0.575 -0.28622,-0.8387 -0.0667,-0.2639 -0.10263,-0.5103 -0.10311,-0.736 -4.7e-4,-0.2257 0.0342,-0.4307 0.10926,-0.6107 0.1315,-0.3152 0.51574,-1.0044 1.08333,-1.9727 0.56759,-0.9683 1.31917,-2.2153 2.18206,-3.6443 1.72584,-2.8581 3.90119,-6.4449 5.96448,-9.9912 1.03173,-1.7732 2.03567,-3.5363 2.94071,-5.193 0.90503,-1.6565 1.71053,-3.2073 2.34824,-4.5549 0.31893,-0.6738 0.59608,-1.2965 0.82173,-1.857 0.22565,-0.5604 0.40064,-1.0583 0.51551,-1.4813 0.11487,-0.4232 0.17043,-0.7719 0.15696,-1.0336 -0.006,-0.1309 -0.0318,-0.2401 -0.0738,-0.3261 -0.0422,-0.086 -0.10189,-0.1485 -0.18163,-0.1867 l -3.93939,-3.024 c 0.0717,0.055 0.11801,0.1767 0.13849,0.3603 0.0205,0.1835 0.0152,0.4285 -0.0154,0.7288 -0.061,0.6006 -0.22288,1.4231 -0.48627,2.4204 -0.26339,0.9975 -0.62882,2.1702 -1.09257,3.4707 -0.46366,1.3004 -1.02611,2.7285 -1.68808,4.2384 -0.66206,1.5099 -1.42385,3.1019 -2.28209,4.7274 -0.42915,0.8128 -0.88247,1.6341 -1.36032,2.4583 -0.47777,0.8242 -0.97875,1.651 -1.50497,2.4748 -0.5263,0.8238 -1.07679,1.6441 -1.65116,2.4558 -0.57444,0.8119 -1.17354,1.6148 -1.79581,2.4028 -0.62235,0.7879 -1.2689,1.5604 -1.93892,2.3129 -0.66994,0.7525 -1.36313,1.4848 -2.08049,2.1901 0,0 -0.98487,-1.89 -2.52367,-4.9141 -1.53882,-3.0241 -3.63163,-7.1822 -5.84754,-11.7183 -1.10792,-2.2681 -2.2467,-4.6305 -3.36234,-6.9931 -1.11564,-2.3627 -2.20818,-4.7251 -3.22384,-6.9932 -1.01557,-2.2681 -1.9543,-4.4416 -2.76219,-6.4262 -0.80789,-1.9845 -1.48497,-3.78 -1.97739,-5.292 -0.0674,0.032 0.54672,-0.5282 1.52959,-1.668 0.4914,-0.57 1.07512,-1.2849 1.71117,-2.1429 0.63606,-0.858 1.32456,-1.8588 2.02664,-3.0016 0.35108,-0.5714 0.7059,-1.1784 1.05871,-1.8203 0.35282,-0.642 0.70479,-1.3197 1.04948,-2.0318 0.34478,-0.7122 0.68258,-1.4591 1.00947,-2.241 0.32681,-0.7819 0.6426,-1.5987 0.94176,-2.4499 0.29916,-0.8513 0.5817,-1.7366 0.84328,-2.6567 0.26157,-0.9202 0.50133,-1.8747 0.71556,-2.86341 0.21422,-0.98873 0.40318,-2.01213 0.56012,-3.06897 0.157,-1.05684 0.2824,-2.14758 0.37238,-3.27214 0,0 -0.22882,-0.27726 -0.57706,-0.67097 -0.34832,-0.39369 -0.81551,-0.90411 -1.29107,-1.37028 -0.23779,-0.23308 -0.47808,-0.45519 -0.70633,-0.64615 -0.22817,-0.19097 -0.44455,-0.35083 -0.63553,-0.45952 -0.19099,-0.10869 -0.35706,-0.16611 -0.48319,-0.15238 -0.063,0.007 -0.11529,0.0317 -0.15697,0.0768 -0.0417,0.045 -0.0724,0.11029 -0.0892,0.19845 -0.2403,1.25867 -0.41972,2.48567 -0.57398,3.68794 -0.15435,1.20229 -0.28301,2.3804 -0.4201,3.53793 -0.13709,1.15754 -0.2838,2.29537 -0.47242,3.4198 -0.1887,1.1244 -0.4204,2.2353 -0.7294,3.3383 -0.1545,0.5515 -0.32729,1.1008 -0.52474,1.6491 -0.19752,0.5483 -0.4188,1.0954 -0.66785,1.6419 -0.24905,0.5466 -0.52634,1.0922 -0.83559,1.6385 -0.30924,0.5463 -0.65144,1.0933 -1.02947,1.6407 -0.37802,0.5475 -0.79251,1.0954 -1.24798,1.6455 -0.4554,0.5502 -0.95123,1.102 -1.49266,1.6562 -0.54135,0.5542 -1.12753,1.1118 -1.7635,1.6715 -0.6359,0.5598 -1.32138,1.1225 -2.06049,1.6893 0,0 -0.73861,-1.5121 -1.90815,-3.9692 -1.16945,-2.457 -2.76988,-5.8591 -4.49336,-9.6391 -1.72349,-3.78015 -3.57006,-7.93824 -5.23201,-11.90733 -0.83098,-1.98455 -1.61575,-3.92185 -2.31594,-5.74101 0.89895,-33.20014 -3.17618,-2.0676 -11.02108,-18.50831 -0.507,-0.81349 -1.05844,-1.66654 -1.65731,-2.55747 -21.30643,-7.88564 -30.14081,-23.54013 -3.61777,1.42546 z"
           sodipodi:nodetypes="cccsssccccccssssssscsscccsssssscssscsssssssssscsccsscssssssssscccssssssssssssssscsccssssssssssscssssscsssssssssscsssssscssssssssssscssscccc" />
      </g>
    </g>
  </g>
</svg>
