<?xml version="1.0" encoding="UTF-8"?> <svg xmlns="http://www.w3.org/2000/svg" viewBox="0 0 25 25"><defs><style>.cls-1{fill:#f26524;}.cls-2{fill:none;}</style></defs><g id="Layer_2" data-name="Layer 2"><g id="Layer_1-2" data-name="Layer 1"><path class="cls-1" d="M19.06,10H13.13v2.19a2.82,2.82,0,0,1-5.63,0V7.44L5,9A2.49,2.49,0,0,0,3.75,11.1V13L.63,14.75a1.25,1.25,0,0,0-.46,1.71l3.12,5.41A1.25,1.25,0,0,0,5,22.33L9,20h5.34a2.51,2.51,0,0,0,2.5-2.5h.62a1.25,1.25,0,0,0,1.25-1.25v-2.5h.31a.94.94,0,0,0,.94-.94V10.94A.94.94,0,0,0,19.06,10Zm5.77-1.46L21.71,3.13A1.25,1.25,0,0,0,20,2.67L16,5H12a2.45,2.45,0,0,0-1.32.38L9.34,6.2a1.22,1.22,0,0,0-.59,1v4.94a1.57,1.57,0,0,0,3.13,0V8.75h7.18a2.19,2.19,0,0,1,2.19,2.19v1.11l3.13-1.8A1.25,1.25,0,0,0,24.83,8.54Z"></path><rect class="cls-2" width="25" height="25"></rect></g></g></svg> 